<svg xmlns="http://www.w3.org/2000/svg" viewBox="0 0 220 80">
  <rect width="220" height="80" rx="14" fill="#e60000"/>
  <circle cx="48" cy="40" r="20" fill="#ffffff"/>
  <path d="M48 24c8 0 14 6 14 14s-6 14-14 14c-8 0-14-6-14-14s6-14 14-14z" fill="#e60000"/>
  <path d="M43 29c3 0 6 3 7 6 1-3 4-6 7-6-3 3-4 6-4 10 0 4 1 7 4 10-3 0-6-3-7-6-1 3-4 6-7 6 3-3 4-6 4-10 0-4-1-7-4-10z" fill="#ffffff"/>
  <text x="84" y="48" font-family="Inter, Arial, sans-serif" font-size="30" font-weight="700" fill="#ffffff">Airtel</text>
</svg>